<?xml version="1.0" encoding="UTF-8"?><svg id="Layer_2" xmlns="http://www.w3.org/2000/svg" viewBox="0 0 85 85"><defs><style>.cls-1,.cls-2,.cls-3,.cls-4,.cls-5,.cls-6{fill:none;}.cls-2,.cls-3,.cls-4,.cls-5,.cls-6{stroke:#231f20;stroke-width:1.5px;}.cls-2,.cls-3,.cls-5{stroke-miterlimit:10;}.cls-2,.cls-6{stroke-linecap:round;}.cls-4,.cls-6{stroke-linejoin:round;}.cls-5{stroke-linecap:square;}</style></defs><g id="Icons"><g><path class="cls-1" d="M42.5,0c.7,0,1.39,.02,2.09,.05,.69,.03,1.39,.09,2.08,.15,.69,.07,1.38,.15,2.07,.26,.69,.1,1.37,.22,2.06,.36s1.36,.29,2.04,.46c.67,.17,1.34,.35,2.01,.56,.67,.2,1.33,.42,1.98,.65,.65,.23,1.3,.48,1.95,.75,.64,.27,1.28,.55,1.91,.85,.63,.3,1.25,.61,1.86,.94,.61,.33,1.22,.67,1.81,1.03s1.18,.73,1.76,1.12c.58,.39,1.15,.79,1.71,1.2,.56,.41,1.11,.84,1.64,1.28s1.06,.9,1.58,1.36c.52,.47,1.02,.95,1.51,1.44,.49,.49,.97,1,1.44,1.51,.47,.52,.92,1.04,1.36,1.58s.87,1.09,1.28,1.64c.41,.56,.81,1.13,1.2,1.71,.39,.58,.76,1.17,1.12,1.76,.36,.6,.7,1.2,1.03,1.81,.33,.61,.64,1.23,.94,1.86,.3,.63,.58,1.26,.85,1.91,.27,.64,.52,1.29,.75,1.95,.23,.65,.45,1.32,.65,1.98,.2,.67,.39,1.34,.56,2.01,.17,.67,.32,1.35,.46,2.04s.25,1.37,.36,2.06c.1,.69,.19,1.38,.26,2.07s.12,1.39,.15,2.08c.03,.69,.05,1.39,.05,2.09s-.02,1.39-.05,2.09c-.03,.69-.09,1.39-.15,2.08s-.15,1.38-.26,2.07c-.1,.69-.22,1.37-.36,2.06-.14,.68-.29,1.36-.46,2.04-.17,.67-.35,1.34-.56,2.01-.2,.67-.42,1.33-.65,1.98-.23,.65-.48,1.3-.75,1.95-.27,.64-.55,1.28-.85,1.91-.3,.63-.61,1.25-.94,1.86-.33,.61-.67,1.22-1.03,1.81-.36,.6-.73,1.18-1.12,1.76-.39,.58-.79,1.15-1.2,1.71-.41,.56-.84,1.11-1.28,1.64-.44,.54-.9,1.06-1.36,1.58-.47,.52-.95,1.02-1.44,1.51-.49,.49-1,.97-1.51,1.44-.52,.47-1.04,.92-1.58,1.36s-1.09,.87-1.64,1.28c-.56,.41-1.13,.81-1.71,1.2-.58,.39-1.17,.76-1.76,1.12-.6,.36-1.2,.7-1.81,1.03s-1.23,.64-1.86,.94c-.63,.3-1.26,.58-1.91,.85-.64,.27-1.29,.52-1.95,.75-.65,.23-1.32,.45-1.98,.65-.67,.2-1.34,.39-2.01,.56-.67,.17-1.35,.32-2.04,.46-.68,.14-1.37,.25-2.06,.36-.69,.1-1.38,.19-2.07,.26s-1.39,.12-2.08,.15c-.69,.03-1.39,.05-2.09,.05s-1.39-.02-2.09-.05c-.69-.03-1.39-.09-2.08-.15s-1.38-.15-2.07-.26c-.69-.1-1.37-.22-2.06-.36-.68-.14-1.36-.29-2.04-.46-.67-.17-1.34-.35-2.01-.56-.67-.2-1.33-.42-1.98-.65-.65-.23-1.3-.48-1.95-.75-.64-.27-1.28-.55-1.91-.85-.63-.3-1.25-.61-1.86-.94-.61-.33-1.22-.67-1.81-1.03-.6-.36-1.18-.73-1.76-1.12-.58-.39-1.15-.79-1.71-1.2-.56-.41-1.11-.84-1.64-1.28-.54-.44-1.06-.9-1.58-1.36-.52-.47-1.02-.95-1.51-1.44-.49-.49-.97-1-1.44-1.51-.47-.52-.92-1.04-1.36-1.58s-.87-1.09-1.28-1.64c-.41-.56-.81-1.13-1.2-1.71-.39-.58-.76-1.17-1.12-1.76s-.7-1.2-1.03-1.81-.64-1.23-.94-1.86c-.3-.63-.58-1.26-.85-1.91-.27-.64-.52-1.29-.75-1.95-.23-.65-.45-1.32-.65-1.98-.2-.67-.39-1.34-.56-2.01-.17-.67-.32-1.35-.46-2.04s-.25-1.37-.36-2.06c-.1-.69-.19-1.38-.26-2.07-.07-.69-.12-1.39-.15-2.08C.02,43.89,0,43.2,0,42.5c0-.7,.02-1.39,.05-2.09,.03-.69,.09-1.39,.15-2.08s.15-1.38,.26-2.07c.1-.69,.22-1.37,.36-2.06s.29-1.36,.46-2.04c.17-.67,.35-1.34,.56-2.01,.2-.67,.42-1.33,.65-1.98,.23-.65,.48-1.3,.75-1.95,.27-.64,.55-1.28,.85-1.91,.3-.63,.61-1.25,.94-1.86,.33-.61,.67-1.22,1.03-1.81,.36-.6,.73-1.18,1.12-1.76,.39-.58,.79-1.15,1.2-1.71,.41-.56,.84-1.11,1.28-1.64s.9-1.06,1.36-1.58c.47-.52,.95-1.02,1.44-1.51,.49-.49,1-.97,1.51-1.44,.52-.47,1.04-.92,1.58-1.36s1.09-.87,1.64-1.28c.56-.41,1.13-.81,1.71-1.2,.58-.39,1.17-.76,1.76-1.12,.6-.36,1.2-.7,1.81-1.03s1.23-.64,1.86-.94c.63-.3,1.26-.58,1.91-.85,.64-.27,1.29-.52,1.95-.75,.65-.23,1.32-.45,1.98-.65,.67-.2,1.34-.39,2.01-.56,.67-.17,1.35-.32,2.04-.46s1.37-.25,2.06-.36c.69-.1,1.38-.19,2.07-.26s1.39-.12,2.08-.15C41.11,.02,41.8,0,42.5,0Z"/><g><path class="cls-3" d="M58.97,42.86v-.32c0-2.16,.92-4.2,2.46-5.72,1.99-1.96,3.15-4.65,3.15-7.63,0-6.45-5.58-11.58-12.2-10.75-4.98,.62-8.92,4.79-9.33,9.79-.28,3.41,.94,6.53,3.21,8.7,1.47,1.4,2.34,3.31,2.34,5.33v.6"/><polygon class="cls-5" points="48.6 42.86 53.79 42.86 58.97 42.86 58.97 47.09 56.08 48.81 55.2 50.35 52.38 50.35 51.5 48.81 48.6 47.09 48.6 42.86"/><path class="cls-4" d="M55.55,29.45c0-.98,.8-1.77,1.77-1.77s1.77,.79,1.77,1.77-.79,1.77-1.77,1.77h-1.76s-.01-1.09-.01-1.77Z"/><path class="cls-4" d="M48.49,29.45c0-.97,.79-1.77,1.76-1.77s1.77,.8,1.77,1.77v1.77h-1.77c-.97,0-1.76-.79-1.76-1.77Z"/><polyline class="cls-4" points="53.79 42.9 53.79 42.86 53.79 31.22"/><polyline class="cls-4" points="52.02 31.22 53.79 31.22 55.55 31.22"/><path class="cls-2" d="M53.77,50.49v6.17c0,1.1-.89,2-2,2h-18.73c-1.11,0-2,.89-2,2,0,.55,.22,1.05,.58,1.41s.87,.59,1.42,.59h26.84c1.1,0,2,.89,2,2,0,.55-.23,1.05-.59,1.41-.36,.37-.86,.59-1.41,.59h-26.84c-3.31,0-6-2.69-6-6l.44-5.75,1.31-17.31,.56-7.34"/><path class="cls-4" d="M33.39,20.27l-1.72-.32c-5.38,4.1-22.97,23.94-8.1,33.53,.06,.04,.13,.08,.23,.14,1.14,.65,2.39,1.1,3.68,1.29,1.15,.18,2.34,.15,3.49-.11,11.66-2.62,11.99-15.74,6.77-21.16-7.03-7.3-4.49-11.97-4.35-13.37Z"/><path class="cls-6" d="M27.75,49.6s-5.23-3.43-4.28-8.37"/><path class="cls-6" d="M28.27,46.03s5.57-.01,6.91-5.79"/><path class="cls-6" d="M28.8,37.6h-.01c-.21-.07-2.71-.87-3.24-3.45"/><path class="cls-2" d="M29.06,34.15s2.73-.14,3.01-1.69"/></g></g></g></svg>